<?xml version="1.0" encoding="utf-8"?>
<!-- Generator: Adobe Illustrator 23.0.0, SVG Export Plug-In . SVG Version: 6.00 Build 0)  -->
<svg version="1.1" id="Layer_1" xmlns="http://www.w3.org/2000/svg" xmlns:xlink="http://www.w3.org/1999/xlink" x="0px" y="0px"
	 viewBox="0 0 692 692" enable-background="new 0 0 692 692" xml:space="preserve">
<g>
	<g>
		<g>
			<g>
				<polyline fill="none" stroke="#FEBC4D" stroke-width="10" stroke-miterlimit="10" points="545.2,177.9 559.3,192.1 564.6,172.8 
									"/>
				<polyline fill="none" stroke="#FEBC4D" stroke-width="10" stroke-miterlimit="10" stroke-dasharray="26.63,9.9863" points="
					567.2,163.1 570.7,150.3 575.5,132.6 				"/>
				<polyline fill="none" stroke="#FEBC4D" stroke-width="10" stroke-miterlimit="10" points="576.8,127.8 582,108.5 562.7,113.6 
									"/>
				<polyline fill="none" stroke="#FEBC4D" stroke-width="10" stroke-miterlimit="10" stroke-dasharray="26.63,9.9863" points="
					553,116.2 540.2,119.6 522.5,124.3 				"/>
				<polyline fill="none" stroke="#FEBC4D" stroke-width="10" stroke-miterlimit="10" points="517.6,125.5 498.3,130.6 512.4,144.8 
									"/>
				<polyline fill="none" stroke="#FEBC4D" stroke-width="10" stroke-miterlimit="10" stroke-dasharray="26.63,9.9863" points="
					519.4,151.9 528.8,161.4 541.7,174.4 				"/>
			</g>
		</g>
		<g>
			<g>
				<polyline fill="none" stroke="#FEBC4D" stroke-width="10" stroke-miterlimit="10" points="600.9,299.3 606,318.6 620.2,304.6 
									"/>
				<polyline fill="none" stroke="#FEBC4D" stroke-width="10" stroke-miterlimit="10" stroke-dasharray="26.63,9.9863" points="
					627.3,297.5 636.7,288.1 649.7,275.2 				"/>
				<polyline fill="none" stroke="#FEBC4D" stroke-width="10" stroke-miterlimit="10" points="653.3,271.7 667.5,257.6 648.2,252.4 
									"/>
				<polyline fill="none" stroke="#FEBC4D" stroke-width="10" stroke-miterlimit="10" stroke-dasharray="26.63,9.9863" points="
					638.5,249.8 625.7,246.3 608,241.5 				"/>
				<polyline fill="none" stroke="#FEBC4D" stroke-width="10" stroke-miterlimit="10" points="603.2,240.2 583.9,234.9 589,254.3 
									"/>
				<polyline fill="none" stroke="#FEBC4D" stroke-width="10" stroke-miterlimit="10" stroke-dasharray="26.63,9.9863" points="
					591.6,263.9 595,276.8 599.6,294.5 				"/>
			</g>
		</g>
		<g>
			<g>
				<polyline fill="none" stroke="#FEBC4D" stroke-width="10" stroke-miterlimit="10" points="588.4,432.3 583.2,451.6 602.5,446.5 
									"/>
				<polyline fill="none" stroke="#FEBC4D" stroke-width="10" stroke-miterlimit="10" stroke-dasharray="26.63,9.9863" points="
					612.2,443.9 625,440.5 642.7,435.9 				"/>
				<polyline fill="none" stroke="#FEBC4D" stroke-width="10" stroke-miterlimit="10" points="647.6,434.6 666.9,429.5 652.8,415.3 
									"/>
				<polyline fill="none" stroke="#FEBC4D" stroke-width="10" stroke-miterlimit="10" stroke-dasharray="26.63,9.9863" points="
					645.8,408.2 636.4,398.7 623.5,385.8 				"/>
				<polyline fill="none" stroke="#FEBC4D" stroke-width="10" stroke-miterlimit="10" points="620,382.2 605.9,368 600.6,387.3 				
					"/>
				<polyline fill="none" stroke="#FEBC4D" stroke-width="10" stroke-miterlimit="10" stroke-dasharray="26.63,9.9863" points="
					598,397 594.5,409.8 589.7,427.5 				"/>
			</g>
		</g>
		<g>
			<g>
				<polyline fill="none" stroke="#FEBC4D" stroke-width="10" stroke-miterlimit="10" points="511.1,541.2 496.9,555.3 516.2,560.6 
									"/>
				<polyline fill="none" stroke="#FEBC4D" stroke-width="10" stroke-miterlimit="10" stroke-dasharray="26.63,9.9863" points="
					525.9,563.2 538.7,566.7 556.4,571.5 				"/>
				<polyline fill="none" stroke="#FEBC4D" stroke-width="10" stroke-miterlimit="10" points="561.2,572.8 580.5,578 575.4,558.7 
									"/>
				<polyline fill="none" stroke="#FEBC4D" stroke-width="10" stroke-miterlimit="10" stroke-dasharray="26.63,9.9863" points="
					572.8,549 569.4,536.2 564.7,518.5 				"/>
				<polyline fill="none" stroke="#FEBC4D" stroke-width="10" stroke-miterlimit="10" points="563.5,513.6 558.4,494.3 544.2,508.4 
									"/>
				<polyline fill="none" stroke="#FEBC4D" stroke-width="10" stroke-miterlimit="10" stroke-dasharray="26.63,9.9863" points="
					537.1,515.4 527.6,524.8 514.6,537.7 				"/>
			</g>
		</g>
		<g>
			<g>
				<polyline fill="none" stroke="#FEBC4D" stroke-width="10" stroke-miterlimit="10" points="389.7,596.9 370.4,602 384.4,616.2 
									"/>
				<polyline fill="none" stroke="#FEBC4D" stroke-width="10" stroke-miterlimit="10" stroke-dasharray="26.63,9.9863" points="
					391.5,623.3 400.9,632.7 413.8,645.7 				"/>
				<polyline fill="none" stroke="#FEBC4D" stroke-width="10" stroke-miterlimit="10" points="417.3,649.3 431.4,663.5 436.6,644.2 
									"/>
				<polyline fill="none" stroke="#FEBC4D" stroke-width="10" stroke-miterlimit="10" stroke-dasharray="26.63,9.9863" points="
					439.2,634.5 442.7,621.7 447.5,604 				"/>
				<polyline fill="none" stroke="#FEBC4D" stroke-width="10" stroke-miterlimit="10" points="448.8,599.2 454.1,579.9 434.7,585 
									"/>
				<polyline fill="none" stroke="#FEBC4D" stroke-width="10" stroke-miterlimit="10" stroke-dasharray="26.63,9.9863" points="
					425.1,587.6 412.2,591 394.5,595.6 				"/>
			</g>
		</g>
		<g>
			<g>
				<polyline fill="none" stroke="#FEBC4D" stroke-width="10" stroke-miterlimit="10" points="256.7,584.4 237.4,579.2 242.5,598.5 
									"/>
				<polyline fill="none" stroke="#FEBC4D" stroke-width="10" stroke-miterlimit="10" stroke-dasharray="26.63,9.9863" points="
					245.1,608.2 248.5,621 253.1,638.7 				"/>
				<polyline fill="none" stroke="#FEBC4D" stroke-width="10" stroke-miterlimit="10" points="254.4,643.6 259.5,662.9 273.7,648.8 
									"/>
				<polyline fill="none" stroke="#FEBC4D" stroke-width="10" stroke-miterlimit="10" stroke-dasharray="26.63,9.9863" points="
					280.8,641.8 290.3,632.4 303.2,619.5 				"/>
				<polyline fill="none" stroke="#FEBC4D" stroke-width="10" stroke-miterlimit="10" points="306.8,616 321,601.9 301.7,596.6 				
					"/>
				<polyline fill="none" stroke="#FEBC4D" stroke-width="10" stroke-miterlimit="10" stroke-dasharray="26.63,9.9863" points="
					292,594 279.2,590.5 261.5,585.7 				"/>
			</g>
		</g>
		<g>
			<g>
				<polyline fill="none" stroke="#FEBC4D" stroke-width="10" stroke-miterlimit="10" points="147.8,507.1 133.7,492.9 128.4,512.2 
									"/>
				<polyline fill="none" stroke="#FEBC4D" stroke-width="10" stroke-miterlimit="10" stroke-dasharray="26.63,9.9863" points="
					125.8,521.9 122.3,534.7 117.5,552.4 				"/>
				<polyline fill="none" stroke="#FEBC4D" stroke-width="10" stroke-miterlimit="10" points="116.2,557.2 111,576.5 130.3,571.4 
									"/>
				<polyline fill="none" stroke="#FEBC4D" stroke-width="10" stroke-miterlimit="10" stroke-dasharray="26.63,9.9863" points="
					140,568.8 152.8,565.4 170.5,560.7 				"/>
				<polyline fill="none" stroke="#FEBC4D" stroke-width="10" stroke-miterlimit="10" points="175.4,559.5 194.7,554.4 180.6,540.2 
									"/>
				<polyline fill="none" stroke="#FEBC4D" stroke-width="10" stroke-miterlimit="10" stroke-dasharray="26.63,9.9863" points="
					173.6,533.1 164.2,523.6 151.3,510.6 				"/>
			</g>
		</g>
		<g>
			<g>
				<polyline fill="none" stroke="#FEBC4D" stroke-width="10" stroke-miterlimit="10" points="92.1,385.7 87,366.4 72.8,380.4 				
					"/>
				<polyline fill="none" stroke="#FEBC4D" stroke-width="10" stroke-miterlimit="10" stroke-dasharray="26.63,9.9863" points="
					65.7,387.5 56.3,396.9 43.3,409.8 				"/>
				<polyline fill="none" stroke="#FEBC4D" stroke-width="10" stroke-miterlimit="10" points="39.7,413.3 25.5,427.4 44.8,432.6 
									"/>
				<polyline fill="none" stroke="#FEBC4D" stroke-width="10" stroke-miterlimit="10" stroke-dasharray="26.63,9.9863" points="
					54.5,435.2 67.3,438.7 85,443.5 				"/>
				<polyline fill="none" stroke="#FEBC4D" stroke-width="10" stroke-miterlimit="10" points="89.8,444.8 109.1,450.1 104,430.7 
									"/>
				<polyline fill="none" stroke="#FEBC4D" stroke-width="10" stroke-miterlimit="10" stroke-dasharray="26.63,9.9863" points="
					101.4,421.1 98,408.2 93.4,390.5 				"/>
			</g>
		</g>
		<g>
			<g>
				<polyline fill="none" stroke="#FEBC4D" stroke-width="10" stroke-miterlimit="10" points="104.6,252.7 109.8,233.4 90.5,238.5 
									"/>
				<polyline fill="none" stroke="#FEBC4D" stroke-width="10" stroke-miterlimit="10" stroke-dasharray="26.63,9.9863" points="
					80.8,241.1 68,244.5 50.3,249.1 				"/>
				<polyline fill="none" stroke="#FEBC4D" stroke-width="10" stroke-miterlimit="10" points="45.4,250.4 26.1,255.5 40.2,269.7 
									"/>
				<polyline fill="none" stroke="#FEBC4D" stroke-width="10" stroke-miterlimit="10" stroke-dasharray="26.63,9.9863" points="
					47.2,276.8 56.6,286.3 69.5,299.2 				"/>
				<polyline fill="none" stroke="#FEBC4D" stroke-width="10" stroke-miterlimit="10" points="73,302.8 87.1,317 92.4,297.7 				"/>
				<polyline fill="none" stroke="#FEBC4D" stroke-width="10" stroke-miterlimit="10" stroke-dasharray="26.63,9.9863" points="
					95,288 98.5,275.2 103.3,257.5 				"/>
			</g>
		</g>
		<g>
			<g>
				<polyline fill="none" stroke="#FEBC4D" stroke-width="10" stroke-miterlimit="10" points="181.9,143.8 196.1,129.7 176.8,124.4 
									"/>
				<polyline fill="none" stroke="#FEBC4D" stroke-width="10" stroke-miterlimit="10" stroke-dasharray="26.63,9.9863" points="
					167.1,121.8 154.3,118.3 136.6,113.5 				"/>
				<polyline fill="none" stroke="#FEBC4D" stroke-width="10" stroke-miterlimit="10" points="131.8,112.2 112.5,107 117.6,126.3 
									"/>
				<polyline fill="none" stroke="#FEBC4D" stroke-width="10" stroke-miterlimit="10" stroke-dasharray="26.63,9.9863" points="
					120.2,136 123.6,148.8 128.3,166.5 				"/>
				<polyline fill="none" stroke="#FEBC4D" stroke-width="10" stroke-miterlimit="10" points="129.5,171.4 134.6,190.7 148.8,176.6 
									"/>
				<polyline fill="none" stroke="#FEBC4D" stroke-width="10" stroke-miterlimit="10" stroke-dasharray="26.63,9.9863" points="
					155.9,169.6 165.4,160.2 178.4,147.3 				"/>
			</g>
		</g>
		<g>
			<g>
				<polyline fill="none" stroke="#FEBC4D" stroke-width="10" stroke-miterlimit="10" points="303.3,88.1 322.6,83 308.6,68.8 				
					"/>
				<polyline fill="none" stroke="#FEBC4D" stroke-width="10" stroke-miterlimit="10" stroke-dasharray="26.63,9.9863" points="
					301.5,61.7 292.1,52.3 279.2,39.3 				"/>
				<polyline fill="none" stroke="#FEBC4D" stroke-width="10" stroke-miterlimit="10" points="275.7,35.7 261.6,21.5 256.4,40.8 
									"/>
				<polyline fill="none" stroke="#FEBC4D" stroke-width="10" stroke-miterlimit="10" stroke-dasharray="26.63,9.9863" points="
					253.8,50.5 250.3,63.3 245.5,81 				"/>
				<polyline fill="none" stroke="#FEBC4D" stroke-width="10" stroke-miterlimit="10" points="244.2,85.8 238.9,105.1 258.3,100 
									"/>
				<polyline fill="none" stroke="#FEBC4D" stroke-width="10" stroke-miterlimit="10" stroke-dasharray="26.63,9.9863" points="
					267.9,97.4 280.8,94 298.5,89.4 				"/>
			</g>
		</g>
		<g>
			<g>
				<polyline fill="none" stroke="#FEBC4D" stroke-width="10" stroke-miterlimit="10" points="436.3,100.6 455.6,105.8 450.5,86.5 
									"/>
				<polyline fill="none" stroke="#FEBC4D" stroke-width="10" stroke-miterlimit="10" stroke-dasharray="26.63,9.9863" points="
					447.9,76.8 444.5,64 439.9,46.3 				"/>
				<polyline fill="none" stroke="#FEBC4D" stroke-width="10" stroke-miterlimit="10" points="438.6,41.4 433.5,22.1 419.3,36.2 
									"/>
				<polyline fill="none" stroke="#FEBC4D" stroke-width="10" stroke-miterlimit="10" stroke-dasharray="26.63,9.9863" points="
					412.2,43.2 402.7,52.6 389.8,65.5 				"/>
				<polyline fill="none" stroke="#FEBC4D" stroke-width="10" stroke-miterlimit="10" points="386.2,69 372,83.1 391.3,88.4 				"/>
				<polyline fill="none" stroke="#FEBC4D" stroke-width="10" stroke-miterlimit="10" stroke-dasharray="26.63,9.9863" points="
					401,91 413.8,94.5 431.5,99.3 				"/>
			</g>
		</g>
	</g>
	<path fill="#FEBC4D" d="M481.7,42.4l59.6,35l-48.3,15L481.7,42.4 M459.4,12l22.5,99.6l96.2-29.9L459.4,12L459.4,12z"/>
	<path fill="#FEBC4D" d="M615.3,150.9l34.1,60.1l-49.3-11.1L615.3,150.9 M611.2,113.4l-30.3,97.5l98.2,22.2L611.2,113.4L611.2,113.4
		z"/>
	<path fill="#FEBC4D" d="M676.7,311.7l-0.5,69.1l-37.1-34.3L676.7,311.7 M692,277.2l-75,69.3l74,68.3L692,277.2L692,277.2z"/>
	<path fill="#FEBC4D" d="M649.6,481.7l-35,59.6l-15-48.3L649.6,481.7 M680,459.4l-99.6,22.5l29.9,96.2L680,459.4L680,459.4z"/>
	<path fill="#FEBC4D" d="M541.1,615.3L481,649.4l11.1-49.3L541.1,615.3 M578.6,611.2l-97.5-30.3l-22.2,98.2L578.6,611.2L578.6,611.2
		z"/>
	<path fill="#FEBC4D" d="M380.3,676.7l-69.1-0.5l34.3-37.1L380.3,676.7 M414.8,692l-69.3-75l-68.3,74L414.8,692L414.8,692z"/>
	<path fill="#FEBC4D" d="M210.3,649.6l-59.6-35l48.3-15L210.3,649.6 M232.6,680l-22.5-99.6l-96.2,29.9L232.6,680L232.6,680z"/>
	<path fill="#FEBC4D" d="M76.7,541.1L42.6,481l49.3,11.1L76.7,541.1 M80.8,578.6l30.3-97.5l-98.2-22.2L80.8,578.6L80.8,578.6z"/>
	<path fill="#FEBC4D" d="M15.3,380.3l0.5-69.1l37.1,34.3L15.3,380.3 M0,414.8l75-69.3L1,277.2L0,414.8L0,414.8z"/>
	<path fill="#FEBC4D" d="M42.4,210.3l35-59.6l15,48.3L42.4,210.3 M12,232.6l99.6-22.5l-29.9-96.2L12,232.6L12,232.6z"/>
	<path fill="#FEBC4D" d="M150.9,76.7L211,42.6l-11.1,49.3L150.9,76.7 M113.4,80.8l97.5,30.3l22.2-98.2L113.4,80.8L113.4,80.8z"/>
	<path fill="#FEBC4D" d="M311.7,15.3l69.1,0.5l-34.3,37.1L311.7,15.3 M277.2,0l69.3,75l68.3-74L277.2,0L277.2,0z"/>
</g>
</svg>
