<?xml version="1.0" encoding="utf-8"?>
<!-- Generator: Adobe Illustrator 23.0.0, SVG Export Plug-In . SVG Version: 6.00 Build 0)  -->
<svg version="1.1" id="Layer_1" xmlns="http://www.w3.org/2000/svg" xmlns:xlink="http://www.w3.org/1999/xlink" x="0px" y="0px"
	 viewBox="0 0 640.5 646.7" enable-background="new 0 0 640.5 646.7" xml:space="preserve">
<g id="Layer_3">
	<g>
		<g>
			<path fill="#FDBC4E" d="M326.7,225.1l-18.6,47.7l-18.7-47.7l-9.6,44h-6.6l14.5-66l20.3,53l20.3-53l14.4,66h-6.5L326.7,225.1z"/>
			<path fill="#FDBC4E" d="M403.3,264.5c-4.1,3.6-9.6,5.5-16.5,5.5s-12.4-1.8-16.6-5.5c-4.4-3.9-6.6-9.1-6.6-15.8v-41.4h6.4v42.3
				c0,4.7,1.7,8.2,5.1,10.7c2.9,2.2,6.8,3.3,11.7,3.3c7.6,0,12.7-2.5,15.3-7.6c0.9-1.8,1.4-3.9,1.4-6.4v-42.3h6.4v41.4
				C409.9,255.4,407.7,260.6,403.3,264.5z"/>
			<path fill="#FDBC4E" d="M443.1,269.1h-6.4v-65.8l34.8,49.4v-45.5h6.4v65.7l-34.8-49.4V269.1z"/>
			<path fill="#FDBC4E" d="M551.6,250.6c-1.7,3.8-3.9,7.1-6.8,9.8s-6.2,4.9-10.1,6.4c-3.9,1.5-8,2.3-12.5,2.3H506v-61.9h16.2
				c4.4,0,8.6,0.8,12.5,2.3s7.3,3.7,10.1,6.4s5.1,6,6.8,9.8s2.5,7.9,2.5,12.4C554.1,242.7,553.3,246.8,551.6,250.6z M540.5,220.5
				c-4.9-4.6-10.9-6.9-18-6.9h-10v49.1h10c7.1,0,13.2-2.3,18-6.9c5-4.7,7.5-10.6,7.5-17.7C547.9,231.1,545.4,225.2,540.5,220.5z"/>
			<path fill="#FDBC4E" d="M638,250.4c-1.7,3.9-3.9,7.3-6.8,10.1c-2.9,2.9-6.3,5.2-10.1,6.8s-8,2.5-12.4,2.5s-8.5-0.8-12.3-2.5
				s-7.2-3.9-10.1-6.8c-2.9-2.9-5.2-6.3-6.8-10.1c-1.7-3.9-2.5-8-2.5-12.4s0.8-8.5,2.5-12.4s3.9-7.3,6.8-10.1s6.2-5.1,10.1-6.8
				s8-2.5,12.3-2.5s8.5,0.8,12.4,2.5s7.3,3.9,10.1,6.8s5.2,6.2,6.8,10.1c1.7,3.9,2.5,8,2.5,12.4S639.6,246.5,638,250.4z
				 M626.6,220.1c-5-5-11-7.5-18-7.5s-13,2.5-17.9,7.5c-5,5-7.5,11-7.5,17.9c0,7,2.5,13,7.5,18s11,7.5,17.9,7.5c7,0,13-2.5,18-7.5
				s7.5-11,7.5-18S631.6,225,626.6,220.1z"/>
		</g>
		<g>
			<g>
				<g>
					<path fill="#FDBC4E" d="M419,458c-13,9-27.3,13.6-42.8,13.6c-21.1,0-39.1-7.8-54-23.3c-14.6-15.3-22-33.6-22-54.9
						c0-10.6,1.9-20.6,5.8-30.1s9.3-17.8,16.1-25c14.9-15.5,32.9-23.3,54-23.3c15.6,0,29.8,4.4,42.6,13.3
						c12.8,8.9,22,20.6,27.8,35.1h-17.2c-8.2-15.1-20.5-25.1-36.8-29.9c-5.3-1.6-11.5-2.4-18.5-2.4s-14.2,1.7-21.5,5
						s-13.7,7.9-19.2,13.6c-11.6,12-17.4,26.6-17.4,43.7c0,16.9,5.8,31.4,17.4,43.5c11.9,12.4,26.2,18.6,42.9,18.6
						c11.3,0,21.8-3,31.2-9c9.5-6,16.8-13.9,22.1-23.7h17.2C441.2,437.3,431.9,449,419,458z"/>
				</g>
				<circle fill="#FDBC4E" cx="377.6" cy="393.2" r="15.5"/>
			</g>
			<path fill="#FDBC4E" d="M613.5,468.3l-28.3-150.1h-9.8l-37,116.9l-37.9-116.9H491l-27.7,150.1h14.9L498,355.4l38,112.9h5.9
				l36.5-112.9l20.8,112.9H613.5z"/>
		</g>
	</g>
</g>
<g>
	<g>
		<path fill="none" stroke="#FDBC4E" stroke-width="8" stroke-miterlimit="10" d="M3.5,317.6l212.3,6.4c0,0,3.2-125.4,8.9-144.8
			c4.3-14.8,25.2-68.9,25.2-104.1c0-25.4-12.9-70.3-12.9-70.3"/>
		<path fill="none" stroke="#FDBC4E" stroke-width="6" stroke-miterlimit="10" d="M177.7,372.9c0,0,8.4,67.2,3.3,94.6
			c-9.6,51.5-16.4,57-16.4,89.2c0,17.6,18.5,71.6,27.7,86.8l5.2-0.3c0,0-1.3-68.7,7.5-104.8c10.5-43,27.1-57.8,39.5-105.4
			c15.4-59.4,16.4-66.9,16.4-66.9l-45-42.3L177.7,372.9z"/>
		<path fill="none" stroke="#FDBC4E" stroke-width="6" stroke-miterlimit="10" d="M254.7,273.7c0,0-8.4-67.2-3.3-94.6
			c9.6-51.5,16.4-57,16.4-89.2c0-17.6-18.5-71.6-27.7-86.8L235,3.4c0,0,1.3,68.7-7.5,104.8c-10.5,43-27.1,57.8-39.5,105.4
			c-15.4,59.4-16.4,66.9-16.4,66.9l45,42.3L254.7,273.7z"/>
		<path fill="none" stroke="#FDBC4E" stroke-width="8" stroke-miterlimit="10" d="M215.8,323.9c0,0-3.2,125.4-8.9,144.8
			c-4.3,14.8-25.2,68.9-25.2,104.1c0,25.4,12.9,70.3,12.9,70.3"/>
		<polygon fill="none" stroke="#FDBC4E" stroke-width="6" stroke-miterlimit="10" points="176.7,374.9 3,322.9 3,313.2 167.3,278 
			214.3,321.4 		"/>
		<polyline fill="none" stroke="#FDBC4E" stroke-width="6" stroke-miterlimit="10" points="148.3,365.5 154.4,392.6 176.7,391.8 		
			"/>
		<line fill="none" stroke="#FDBC4E" stroke-width="6" stroke-miterlimit="10" x1="176.7" y1="374.9" x2="153.9" y2="390.3"/>
		<polyline fill="none" stroke="#FDBC4E" stroke-width="6" stroke-miterlimit="10" points="143.8,282.6 151.4,255.7 175.2,256.4 		
			"/>
		<line fill="none" stroke="#FDBC4E" stroke-width="6" stroke-miterlimit="10" x1="167.3" y1="278" x2="149.7" y2="257.1"/>
	</g>
</g>
</svg>
