<?xml version="1.0" encoding="utf-8"?>
<!-- Generator: Adobe Illustrator 23.0.0, SVG Export Plug-In . SVG Version: 6.00 Build 0)  -->
<svg version="1.1" id="Layer_1" xmlns="http://www.w3.org/2000/svg" xmlns:xlink="http://www.w3.org/1999/xlink" x="0px" y="0px"
	 viewBox="0 0 367.3 268.5" enable-background="new 0 0 367.3 268.5" xml:space="preserve">
<g id="Layer_3">
	<g>
		<g>
			<path fill="#FDBC4E" d="M53.5,22L34.9,69.7L16.2,22L6.6,66H0L14.5,0l20.3,53L55.1,0l14.4,66H63L53.5,22z"/>
			<path fill="#FDBC4E" d="M130.1,61.4c-4.1,3.6-9.6,5.5-16.5,5.5s-12.4-1.8-16.6-5.5c-4.4-3.9-6.6-9.1-6.6-15.8V4.2h6.4v42.3
				c0,4.7,1.7,8.2,5.1,10.7c2.9,2.2,6.8,3.3,11.7,3.3c7.6,0,12.7-2.5,15.3-7.6c0.9-1.8,1.4-3.9,1.4-6.4V4.2h6.4v41.4
				C136.7,52.3,134.5,57.5,130.1,61.4z"/>
			<path fill="#FDBC4E" d="M169.9,66h-6.4V0.2l34.8,49.4V4.1h6.4v65.7l-34.8-49.4V66z"/>
			<path fill="#FDBC4E" d="M278.4,47.5c-1.7,3.8-3.9,7.1-6.8,9.8s-6.2,4.9-10.1,6.4c-3.9,1.5-8,2.3-12.5,2.3h-16.2V4.1H249
				c4.4,0,8.6,0.8,12.5,2.3s7.3,3.7,10.1,6.4s5.1,6,6.8,9.8s2.5,7.9,2.5,12.4C280.9,39.6,280.1,43.7,278.4,47.5z M267.3,17.4
				c-4.9-4.6-10.9-6.9-18-6.9h-10v49.1h10c7.1,0,13.2-2.3,18-6.9c5-4.7,7.5-10.6,7.5-17.7C274.7,28,272.2,22.1,267.3,17.4z"/>
			<path fill="#FDBC4E" d="M364.8,47.3c-1.7,3.9-3.9,7.3-6.8,10.1c-2.9,2.9-6.3,5.2-10.1,6.8s-8,2.5-12.4,2.5s-8.5-0.8-12.3-2.5
				s-7.2-3.9-10.1-6.8c-2.9-2.9-5.2-6.3-6.8-10.1c-1.7-3.9-2.5-8-2.5-12.4s0.8-8.5,2.5-12.4s3.9-7.3,6.8-10.1s6.2-5.1,10.1-6.8
				s8-2.5,12.3-2.5s8.5,0.8,12.4,2.5s7.3,3.9,10.1,6.8s5.2,6.2,6.8,10.1c1.7,3.9,2.5,8,2.5,12.4S366.4,43.4,364.8,47.3z M353.4,17
				c-5-5-11-7.5-18-7.5s-13,2.5-17.9,7.5c-5,5-7.5,11-7.5,17.9c0,7,2.5,13,7.5,18s11,7.5,17.9,7.5c7,0,13-2.5,18-7.5s7.5-11,7.5-18
				S358.4,21.9,353.4,17z"/>
		</g>
		<g>
			<g>
				<g>
					<path fill="#FDBC4E" d="M145.8,254.9c-13,9-27.3,13.6-42.8,13.6c-21.1,0-39.1-7.8-54-23.3c-14.6-15.3-22-33.6-22-54.9
						c0-10.6,1.9-20.6,5.8-30.1s9.3-17.8,16.1-25c14.9-15.5,32.9-23.3,54-23.3c15.6,0,29.8,4.4,42.6,13.3
						c12.8,8.9,22,20.6,27.8,35.1h-17.2c-8.2-15.1-20.5-25.1-36.8-29.9c-5.3-1.6-11.5-2.4-18.5-2.4s-14.2,1.7-21.5,5
						s-13.7,7.9-19.2,13.6c-11.6,12-17.4,26.6-17.4,43.7c0,16.9,5.8,31.4,17.4,43.5c11.9,12.4,26.2,18.6,42.9,18.6
						c11.3,0,21.8-3,31.2-9c9.5-6,16.8-13.9,22.1-23.7h17.2C168,234.2,158.7,245.9,145.8,254.9z"/>
				</g>
				<circle fill="#FDBC4E" cx="104.4" cy="190.1" r="15.5"/>
			</g>
			<path fill="#FDBC4E" d="M340.3,265.2L312,115.1h-9.8l-37,116.9l-37.9-116.9h-9.5l-27.7,150.1H205l19.8-112.9l38,112.9h5.9
				l36.5-112.9L326,265.2H340.3z"/>
		</g>
	</g>
</g>
</svg>
